<svg id="e1p8BHWC9sE1" xmlns="http://www.w3.org/2000/svg" xmlns:xlink="http://www.w3.org/1999/xlink" viewBox="0 0 500 500" shape-rendering="geometricPrecision" text-rendering="geometricPrecision"><g transform="matrix(.1 0 0-.1 16.230839 508.11542)"><path d="M2655,4255c-258-48-588-166-790-283-71-42-255-223-308-304-103-158-174-336-202-511-17-106-18-313-1-407l11-65l169-3c158-2,168-1,161,15-119,307-87,754,72,1016c165,273,474,419,848,404c265-12,452-80,432-158-5-17-3-17,28-5c51,22,141,82,190,127c71,65,58,102-47,138-123,42-424,61-563,36Z" fill="#160747"/><path d="M2952,3165c-181-42-378-153-514-289-55-55-128-161-128-185c0-7,30-11,89-11h88l5,68c6,77,23,117,79,177c95,103,310,142,492,88c61-18,90-40,84-65-7-24-3-23,51,14c80,55,124,92,138,119c12,23,11,28-4,43-52,47-258,69-380,41Z" fill="#160747"/><path d="M1330,2600c0-5,12-10,28-9c24,0,25,1,7,9-27,12-35,12-35,0Z"/><path d="M1690,2602c0-4,10-12,23-17c16-7,22-18,22-42s3-29,12-21c20,16,15,55-9,72s-48,21-48,8Z"/><path d="M2123,2602c-7-4-13-44-15-105l-3-97h40c22,0,47,4,54,9c10,6,0,8-28,4l-43-6l4,102c1,55,3,101,3,101s-5-4-12-8Z"/><path d="M2283,2602c-7-4-13-46-15-105-3-92-2-97,17-96c11,0,16,2,10,5-6,2-8,41-5,101c3,54,5,99,5,100s-6-1-12-5Z"/><path d="M2529,2603c0-5,0-44,1-88l1-80-55,54c-30,30-60,67-67,83-21,50-29,30-27-64c1-89,2-90,7-29l6,63l64-66c35-37,66-64,70-61c9,10,17,195,9,195-5,0-8-3-9-7Z"/><path d="M1492,2588c-9-11-28-55-57-133-6-17-5-17,9,3c11,14,28,22,46,22c25,0,31-5,41-40c7-23,18-40,27-40s12,6,7,18c-4,9-18,53-31,96-27,91-28,91-42,74Zm15-94c-3-3-14-4-25-2-20,3-20,5-5,38l16,35l10-33c5-18,7-35,4-38Z"/><path d="M1639,2591c11-7,13-28,8-100-4-67-3-91,6-91c8,0,13,32,15,100c4,99,4,100-20,100-17,0-19-3-9-9Z"/><path d="M1937,2591c64-12,97-66,75-125-16-40-7-45,12-7c39,74,2,142-76,140-40-2-41-2-11-8Z"/><path d="M2620,2544c4-31,5-76,4-100l-3-44l42,2c38,1,39,2,9,5-29,4-33,7-28,26c3,12,6,32,6,44s8,24,18,26c16,4,16,5,0,6-14,1-18,10-18,40c0,39,1,40,38,44c28,3,24,4-19,5l-55,2l6-56Z"/><path d="M2930,2596c0-8,51-13,56-5c3,5-9,9-25,9-17,0-31-2-31-4Z"/><path d="M3099,2554c-11-27-32-73-44-101-13-29-21-53-17-53s15,18,24,41c16,37,20,40,50,37c29-3,34-8,42-40c6-22,16-38,24-38c9,0,12,6,8,16-3,8-16,50-28,92s-25,81-29,86c-5,5-18-12-30-40Zm31-33c8-30,7-31-21-31h-29l17,35c19,40,20,39,33-4Z"/><path d="M3265,2500v-100l35,1c28,2,30,3,9,6-26,4-27,5-22,71c2,37,5,79,7,95c2,19-2,27-13,27-14,0-16-16-16-100Z"/><path d="M3345,2593c28-7,62-41,69-69c4-13,0-40-9-60-12-30-12-34-1-25c62,52,30,163-46,160-22-1-26-3-13-6Z"/><path d="M3562,2588c-9-11-28-55-57-133-6-17-5-17,9,3c11,14,28,22,46,22c25,0,31-5,41-40c7-23,18-40,27-40s12,6,7,18c-4,9-18,53-31,96-27,91-28,91-42,74Zm12-96c-36-9-43,1-27,38l15,35l13-35c10-29,10-36-1-38Z"/><path d="M1863,2553c-28-42-23-100,10-129c30-25,72-31,97-13c12,9,12,10-3,5-27-9-82,21-96,50-15,33-14,53,3,87c19,35,12,35-11,0Z"/><path d="M1222,2545c-13-28-16-74-6-100c13-33,90-57,122-36c8,5-1,8-24,9s-46,10-62,24c-21,20-23,30-20,76c3,28,4,52,3,52s-7-11-13-25Z"/><path d="M2887,2563c-18-17-4-45,33-68c23-14,44-35,49-47c7-18,9-19,14-5c10,26-1,44-34,57-32,14-61,48-53,62c6,10,0,11-9,1Z"/><path d="M1737,2449c28-28,55-49,61-45c13,8-79,96-99,96-8,0,9-23,38-51Z"/><path d="M1410,2415c-10-12-10-15,2-15c8,0,15,7,15,15s-1,15-2,15c-2,0-8-7-15-15Z"/><path d="M2864,2419c-7-12,19-21,47-17c19,3,18,4-10,15-18,6-33,7-37,2Z"/><path d="M3480,2415c-10-12-10-15,2-15c8,0,15,7,15,15s-1,15-2,15c-2,0-8-7-15-15Z"/><path d="M1579,2282c47-67,182-168,306-230c158-79,384-132,562-132c96,0,158,11,266,48l79,26-137,68c-109,55-153,72-222,84-120,21-259,68-350,120l-76,44h-224-224l20-28Z" fill="#160747"/><path d="M2450,2290c31-24,187-108,341-185c150-74,233-136,284-209c38-55,40-63,44-142c4-97-16-152-75-204-81-71-178-100-332-100-107,0-189,17-268,55-64,31-87,57-86,96c0,22-3,28-11,21-169-128-196-158-181-199c13-37,48-59,144-92c126-42,214-55,290-41c184,33,434,173,591,330c97,97,131,157,137,241c11,155-85,262-356,398l-102,51h-222c-223,0-223,0-198-20Z" transform="translate(0 4.99552)" fill="#160747"/></g><path d="" fill="none" stroke="#3f5787"/></svg>
